<svg viewBox="44.54346109175378 274.94399999999996 1273.328594657375 473.08799999999997" version="1.1" id="svg2" xml:space="preserve" xmlns="http://www.w3.org/2000/svg" style="max-height: 500px" width="1273.328594657375" height="473.08799999999997"><metadata id="metadata8">image/svg+xml</metadata><defs id="defs6"><clipPath clipPathUnits="userSpaceOnUse" id="clipPath20"><path d="M 0,0 H 1024 V 768 H 0 Z" id="path18"/></clipPath><clipPath clipPathUnits="userSpaceOnUse" id="clipPath34"><path d="M 184.0984,384.336 294.022,494.2596 299.6788,488.6027 189.7553,378.6791 Z" id="path32"/></clipPath><clipPath clipPathUnits="userSpaceOnUse" id="clipPath40"><path d="M 0,0 H 1024 V 768 H 0 Z" id="path38"/></clipPath><clipPath clipPathUnits="userSpaceOnUse" id="clipPath52"><path d="M 189.7552,390.0388 299.6788,280.1152 294.022,274.4583 184.0984,384.3819 Z" id="path50"/></clipPath><clipPath clipPathUnits="userSpaceOnUse" id="clipPath58"><path d="M 0,0 H 1024 V 768 H 0 Z" id="path56"/></clipPath><clipPath clipPathUnits="userSpaceOnUse" id="clipPath70"><path d="m 291.2757,492.1314 102.6869,45.4442 3.2375,-7.3156 -102.6868,-45.4442 z" id="path68"/></clipPath><clipPath clipPathUnits="userSpaceOnUse" id="clipPath76"><path d="M 0,0 H 1024 V 768 H 0 Z" id="path74"/></clipPath><clipPath clipPathUnits="userSpaceOnUse" id="clipPath88"><path d="m 294.5133,495.171 102.6868,-45.4442 -3.2375,-7.3157 -102.6869,45.4443 z" id="path86"/></clipPath><clipPath clipPathUnits="userSpaceOnUse" id="clipPath94"><path d="M 0,0 H 1024 V 768 H 0 Z" id="path92"/></clipPath><clipPath clipPathUnits="userSpaceOnUse" id="clipPath106"><path d="m 291.2757,281.5758 102.6869,45.4442 3.2375,-7.3156 -102.6868,-45.4443 z" id="path104"/></clipPath><clipPath clipPathUnits="userSpaceOnUse" id="clipPath112"><path d="M 0,0 H 1024 V 768 H 0 Z" id="path110"/></clipPath><clipPath clipPathUnits="userSpaceOnUse" id="clipPath124"><path d="m 294.5133,284.6153 102.6868,-45.4442 -3.2375,-7.3156 -102.6869,45.4442 z" id="path122"/></clipPath><clipPath clipPathUnits="userSpaceOnUse" id="clipPath130"><path d="M 0,0 H 1024 V 768 H 0 Z" id="path128"/></clipPath><clipPath clipPathUnits="userSpaceOnUse" id="clipPath142"><path d="m 388.5676,535.9893 110.2927,22.3063 1.5858,-7.8412 -110.2927,-22.3064 z" id="path140"/></clipPath><clipPath clipPathUnits="userSpaceOnUse" id="clipPath148"><path d="M 0,0 H 1024 V 768 H 0 Z" id="path146"/></clipPath><clipPath clipPathUnits="userSpaceOnUse" id="clipPath160"><path d="m 390.1534,536.9441 110.2927,-22.3063 -1.5858,-7.8412 -110.2927,22.3063 z" id="path158"/></clipPath><clipPath clipPathUnits="userSpaceOnUse" id="clipPath166"><path d="M 0,0 H 1024 V 768 H 0 Z" id="path164"/></clipPath><clipPath clipPathUnits="userSpaceOnUse" id="clipPath178"><path d="m 388.5676,451.0686 110.2927,22.3063 1.5858,-7.8412 -110.2927,-22.3064 z" id="path176"/></clipPath><clipPath clipPathUnits="userSpaceOnUse" id="clipPath184"><path d="M 0,0 H 1024 V 768 H 0 Z" id="path182"/></clipPath><clipPath clipPathUnits="userSpaceOnUse" id="clipPath196"><path d="m 390.1534,452.0234 110.2927,-22.3063 -1.5858,-7.8412 -110.2927,22.3063 z" id="path194"/></clipPath><clipPath clipPathUnits="userSpaceOnUse" id="clipPath202"><path d="M 0,0 H 1024 V 768 H 0 Z" id="path200"/></clipPath><clipPath clipPathUnits="userSpaceOnUse" id="clipPath214"><path d="m 388.8571,325.4715 110.2927,22.3064 1.5858,-7.8413 -110.2926,-22.3063 z" id="path212"/></clipPath><clipPath clipPathUnits="userSpaceOnUse" id="clipPath220"><path d="M 0,0 H 1024 V 768 H 0 Z" id="path218"/></clipPath><clipPath clipPathUnits="userSpaceOnUse" id="clipPath232"><path d="m 390.443,326.4264 110.2926,-22.3063 -1.5858,-7.8413 -110.2927,22.3063 z" id="path230"/></clipPath><clipPath clipPathUnits="userSpaceOnUse" id="clipPath238"><path d="M 0,0 H 1024 V 768 H 0 Z" id="path236"/></clipPath><clipPath clipPathUnits="userSpaceOnUse" id="clipPath250"><path d="m 388.5676,239.7788 110.2927,22.3064 1.5858,-7.8413 -110.2927,-22.3063 z" id="path248"/></clipPath><clipPath clipPathUnits="userSpaceOnUse" id="clipPath256"><path d="M 0,0 H 1024 V 768 H 0 Z" id="path254"/></clipPath><clipPath clipPathUnits="userSpaceOnUse" id="clipPath268"><path d="m 390.1534,240.7337 110.2927,-22.3063 -1.5858,-7.8412 -110.2927,22.3063 z" id="path266"/></clipPath><clipPath clipPathUnits="userSpaceOnUse" id="clipPath274"><path d="M 0,0 H 1024 V 768 H 0 Z" id="path272"/></clipPath><clipPath clipPathUnits="userSpaceOnUse" id="clipPath286"><path d="M 913.2061,384.336 803.2825,494.2596 797.6256,488.6027 907.5492,378.6791 Z" id="path284"/></clipPath><clipPath clipPathUnits="userSpaceOnUse" id="clipPath292"><path d="M 0,0 H 1024 V 768 H 0 Z" id="path290"/></clipPath><clipPath clipPathUnits="userSpaceOnUse" id="clipPath304"><path d="m 907.5492,390.0388 -109.9235,-109.9236 5.6568,-5.6569 109.9236,109.9236 z" id="path302"/></clipPath><clipPath clipPathUnits="userSpaceOnUse" id="clipPath310"><path d="M 0,0 H 1024 V 768 H 0 Z" id="path308"/></clipPath><clipPath clipPathUnits="userSpaceOnUse" id="clipPath322"><path d="M 806.0287,492.1314 703.3419,537.5756 700.1044,530.26 802.7912,484.8158 Z" id="path320"/></clipPath><clipPath clipPathUnits="userSpaceOnUse" id="clipPath328"><path d="M 0,0 H 1024 V 768 H 0 Z" id="path326"/></clipPath><clipPath clipPathUnits="userSpaceOnUse" id="clipPath340"><path d="m 802.7912,495.171 -102.6868,-45.4442 3.2375,-7.3157 102.6868,45.4443 z" id="path338"/></clipPath><clipPath clipPathUnits="userSpaceOnUse" id="clipPath346"><path d="M 0,0 H 1024 V 768 H 0 Z" id="path344"/></clipPath><clipPath clipPathUnits="userSpaceOnUse" id="clipPath358"><path d="M 806.0287,281.5758 703.3419,327.02 700.1044,319.7044 802.7912,274.2601 Z" id="path356"/></clipPath><clipPath clipPathUnits="userSpaceOnUse" id="clipPath364"><path d="M 0,0 H 1024 V 768 H 0 Z" id="path362"/></clipPath><clipPath clipPathUnits="userSpaceOnUse" id="clipPath376"><path d="m 802.7912,284.6153 -102.6868,-45.4442 3.2375,-7.3156 102.6868,45.4442 z" id="path374"/></clipPath><clipPath clipPathUnits="userSpaceOnUse" id="clipPath382"><path d="M 0,0 H 1024 V 768 H 0 Z" id="path380"/></clipPath><clipPath clipPathUnits="userSpaceOnUse" id="clipPath394"><path d="M 708.7369,535.9893 598.4442,558.2956 596.8584,550.4544 707.151,528.148 Z" id="path392"/></clipPath><clipPath clipPathUnits="userSpaceOnUse" id="clipPath400"><path d="M 0,0 H 1024 V 768 H 0 Z" id="path398"/></clipPath><clipPath clipPathUnits="userSpaceOnUse" id="clipPath412"><path d="m 707.151,536.9441 -110.2926,-22.3063 1.5858,-7.8412 110.2927,22.3063 z" id="path410"/></clipPath><clipPath clipPathUnits="userSpaceOnUse" id="clipPath418"><path d="M 0,0 H 1024 V 768 H 0 Z" id="path416"/></clipPath><clipPath clipPathUnits="userSpaceOnUse" id="clipPath430"><path d="m 708.7369,451.0686 -110.2927,22.3063 -1.5858,-7.8412 110.2926,-22.3064 z" id="path428"/></clipPath><clipPath clipPathUnits="userSpaceOnUse" id="clipPath436"><path d="M 0,0 H 1024 V 768 H 0 Z" id="path434"/></clipPath><clipPath clipPathUnits="userSpaceOnUse" id="clipPath448"><path d="m 707.151,452.0234 -110.2926,-22.3063 1.5858,-7.8412 110.2927,22.3063 z" id="path446"/></clipPath><clipPath clipPathUnits="userSpaceOnUse" id="clipPath454"><path d="M 0,0 H 1024 V 768 H 0 Z" id="path452"/></clipPath><clipPath clipPathUnits="userSpaceOnUse" id="clipPath466"><path d="m 708.4474,325.4715 -110.2927,22.3064 -1.5859,-7.8413 110.2927,-22.3063 z" id="path464"/></clipPath><clipPath clipPathUnits="userSpaceOnUse" id="clipPath472"><path d="M 0,0 H 1024 V 768 H 0 Z" id="path470"/></clipPath><clipPath clipPathUnits="userSpaceOnUse" id="clipPath484"><path d="m 706.8615,326.4264 -110.2927,-22.3063 1.5859,-7.8413 110.2927,22.3063 z" id="path482"/></clipPath><clipPath clipPathUnits="userSpaceOnUse" id="clipPath490"><path d="M 0,0 H 1024 V 768 H 0 Z" id="path488"/></clipPath><clipPath clipPathUnits="userSpaceOnUse" id="clipPath502"><path d="m 708.7369,239.7788 -110.2927,22.3064 -1.5858,-7.8413 110.2926,-22.3063 z" id="path500"/></clipPath><clipPath clipPathUnits="userSpaceOnUse" id="clipPath508"><path d="M 0,0 H 1024 V 768 H 0 Z" id="path506"/></clipPath><clipPath clipPathUnits="userSpaceOnUse" id="clipPath520"><path d="m 707.151,240.7337 -110.2926,-22.3063 1.5858,-7.8412 110.2927,22.3063 z" id="path518"/></clipPath><clipPath clipPathUnits="userSpaceOnUse" id="clipPath526"><path d="M 0,0 H 1024 V 768 H 0 Z" id="path524"/></clipPath><clipPath clipPathUnits="userSpaceOnUse" id="clipPath538"><path d="m 492.4856,217.467 105.4516,129.6975 6.2072,-5.0468 -105.4515,-129.6975 z" id="path536"/></clipPath><clipPath clipPathUnits="userSpaceOnUse" id="clipPath544"><path d="M 0,0 H 1024 V 768 H 0 Z" id="path542"/></clipPath><clipPath clipPathUnits="userSpaceOnUse" id="clipPath556"><path d="m 492.1395,216.3099 104.9477,256.2838 7.4034,-3.0316 -104.9478,-256.2838 z" id="path554"/></clipPath><clipPath clipPathUnits="userSpaceOnUse" id="clipPath562"><path d="M 0,0 H 1024 V 768 H 0 Z" id="path560"/></clipPath><clipPath clipPathUnits="userSpaceOnUse" id="clipPath574"><path d="M 495.2201,253.2244 H 601.41 v 8 H 495.2201 Z" id="path572"/></clipPath><clipPath clipPathUnits="userSpaceOnUse" id="clipPath586"><path d="m 496.7769,261.3097 106.0468,-42.409 -2.9705,-7.428 -106.0469,42.409 z" id="path584"/></clipPath><clipPath clipPathUnits="userSpaceOnUse" id="clipPath592"><path d="M 0,0 H 1024 V 768 H 0 Z" id="path590"/></clipPath><clipPath clipPathUnits="userSpaceOnUse" id="clipPath604"><path d="M 492.5031,302.41 597.97,429.5327 604.1269,424.4246 498.6601,297.3019 Z" id="path602"/></clipPath><clipPath clipPathUnits="userSpaceOnUse" id="clipPath610"><path d="M 0,0 H 1024 V 768 H 0 Z" id="path608"/></clipPath><clipPath clipPathUnits="userSpaceOnUse" id="clipPath622"><path d="m 498.0122,304.3388 105.7264,-88.0824 -5.1207,-6.1465 -105.7264,88.0825 z" id="path620"/></clipPath><clipPath clipPathUnits="userSpaceOnUse" id="clipPath628"><path d="M 0,0 H 1024 V 768 H 0 Z" id="path626"/></clipPath><clipPath clipPathUnits="userSpaceOnUse" id="clipPath640"><path d="M 492.1824,342.3058 595.061,555.8669 602.2683,552.395 499.3897,338.8338 Z" id="path638"/></clipPath><clipPath clipPathUnits="userSpaceOnUse" id="clipPath646"><path d="M 0,0 H 1024 V 768 H 0 Z" id="path644"/></clipPath><clipPath clipPathUnits="userSpaceOnUse" id="clipPath658"><path d="m 496.7707,345.5569 103.8687,-41.3564 -2.9593,-7.4325 -103.8687,41.3564 z" id="path656"/></clipPath><clipPath clipPathUnits="userSpaceOnUse" id="clipPath664"><path d="M 0,0 H 1024 V 768 H 0 Z" id="path662"/></clipPath><clipPath clipPathUnits="userSpaceOnUse" id="clipPath676"><path d="M 498.7048,431.2586 604.1507,300.6003 597.9252,295.576 492.4793,426.2344 Z" id="path674"/></clipPath><clipPath clipPathUnits="userSpaceOnUse" id="clipPath682"><path d="M 0,0 H 1024 V 768 H 0 Z" id="path680"/></clipPath><clipPath clipPathUnits="userSpaceOnUse" id="clipPath694"><path d="M 498.7451,473.8273 601.9926,342.6211 595.7057,337.6739 492.4582,468.8801 Z" id="path692"/></clipPath><clipPath clipPathUnits="userSpaceOnUse" id="clipPath700"><path d="M 0,0 H 1024 V 768 H 0 Z" id="path698"/></clipPath><clipPath clipPathUnits="userSpaceOnUse" id="clipPath712"><path d="m 492.7217,473.171 108.2272,43.0938 2.9595,-7.4325 -108.2273,-43.0938 z" id="path710"/></clipPath><clipPath clipPathUnits="userSpaceOnUse" id="clipPath718"><path d="M 0,0 H 1024 V 768 H 0 Z" id="path716"/></clipPath><clipPath clipPathUnits="userSpaceOnUse" id="clipPath730"><path d="m 497.9542,515.6126 105.7462,-85.3505 -5.0246,-6.2253 -105.7461,85.3505 z" id="path728"/></clipPath><clipPath clipPathUnits="userSpaceOnUse" id="clipPath736"><path d="M 0,0 H 1024 V 768 H 0 Z" id="path734"/></clipPath><clipPath clipPathUnits="userSpaceOnUse" id="clipPath748"><path d="M 498.553,555.3381 605.6014,258.8802 598.077,256.1632 491.0286,552.6211 Z" id="path746"/></clipPath><clipPath clipPathUnits="userSpaceOnUse" id="clipPath754"><path d="M 0,0 H 1024 V 768 H 0 Z" id="path752"/></clipPath><clipPath clipPathUnits="userSpaceOnUse" id="clipPath766"><path d="m 491.8459,429.5981 107.9284,86.6904 5.0098,-6.2372 -107.9284,-86.6904 z" id="path764"/></clipPath><clipPath clipPathUnits="userSpaceOnUse" id="clipPath772"><path d="M 0,0 H 1024 V 768 H 0 Z" id="path770"/></clipPath><clipPath clipPathUnits="userSpaceOnUse" id="clipPath784"><path d="m 494.1304,549.039 h 106.1899 v 8 H 494.1304 Z" id="path782"/></clipPath><clipPath clipPathUnits="userSpaceOnUse" id="clipPath796"><path d="m 496.795,516.1874 106.0436,-42.9568 -3.0036,-7.4147 -106.0436,42.9568 z" id="path794"/></clipPath><clipPath clipPathUnits="userSpaceOnUse" id="clipPath802"><path d="M 0,0 H 1024 V 768 H 0 Z" id="path800"/></clipPath><clipPath clipPathUnits="userSpaceOnUse" id="clipPath814"><path d="m 182.2688,377 h 14 v 14 h -14 z" id="path812"/></clipPath><clipPath clipPathUnits="userSpaceOnUse" id="clipPath824"><path d="m 289.9354,482.6667 h 14 v 14 h -14 z" id="path822"/></clipPath><clipPath clipPathUnits="userSpaceOnUse" id="clipPath834"><path d="m 289.9354,273 h 14 v 14 h -14 z" id="path832"/></clipPath><clipPath clipPathUnits="userSpaceOnUse" id="clipPath844"><path d="m 385.9354,229 h 14 v 14 h -14 z" id="path842"/></clipPath><clipPath clipPathUnits="userSpaceOnUse" id="clipPath854"><path d="m 385.9354,314.3333 h 14 v 14 h -14 z" id="path852"/></clipPath><clipPath clipPathUnits="userSpaceOnUse" id="clipPath864"><path d="m 385.9354,440.7454 h 14 v 14 h -14 z" id="path862"/></clipPath><clipPath clipPathUnits="userSpaceOnUse" id="clipPath874"><path d="m 385.9354,525 h 14 v 14 h -14 z" id="path872"/></clipPath><clipPath clipPathUnits="userSpaceOnUse" id="clipPath884"><path d="m 488.7771,545.54 h 14 v 14 h -14 z" id="path882"/></clipPath><clipPath clipPathUnits="userSpaceOnUse" id="clipPath894"><path d="m 488.7771,504.5928 h 14 v 14 h -14 z" id="path892"/></clipPath><clipPath clipPathUnits="userSpaceOnUse" id="clipPath904"><path d="m 488.7771,462 h 14 v 14 h -14 z" id="path902"/></clipPath><clipPath clipPathUnits="userSpaceOnUse" id="clipPath914"><path d="m 488.7771,419.4072 h 14 v 14 h -14 z" id="path912"/></clipPath><clipPath clipPathUnits="userSpaceOnUse" id="clipPath924"><path d="m 488.7771,334.0739 h 14 v 14 h -14 z" id="path922"/></clipPath><clipPath clipPathUnits="userSpaceOnUse" id="clipPath934"><path d="m 488.7771,293.2744 h 14 v 14 h -14 z" id="path932"/></clipPath><clipPath clipPathUnits="userSpaceOnUse" id="clipPath944"><path d="m 488.7771,250 h 14 v 14 h -14 z" id="path942"/></clipPath><clipPath clipPathUnits="userSpaceOnUse" id="clipPath954"><path d="m 488.7771,208.46 h 14 v 14 h -14 z" id="path952"/></clipPath><clipPath clipPathUnits="userSpaceOnUse" id="clipPath964"><path d="m 592.7771,208.46 h 14 v 14 h -14 z" id="path962"/></clipPath><clipPath clipPathUnits="userSpaceOnUse" id="clipPath974"><path d="m 592.7771,250 h 14 v 14 h -14 z" id="path972"/></clipPath><clipPath clipPathUnits="userSpaceOnUse" id="clipPath984"><path d="m 592.7771,293.2744 h 14 v 14 h -14 z" id="path982"/></clipPath><clipPath clipPathUnits="userSpaceOnUse" id="clipPath994"><path d="m 592.7771,334.0739 h 14 v 14 h -14 z" id="path992"/></clipPath><clipPath clipPathUnits="userSpaceOnUse" id="clipPath1004"><path d="m 592.7771,419.4072 h 14 v 14 h -14 z" id="path1002"/></clipPath><clipPath clipPathUnits="userSpaceOnUse" id="clipPath1014"><path d="m 592.7771,462 h 14 v 14 h -14 z" id="path1012"/></clipPath><clipPath clipPathUnits="userSpaceOnUse" id="clipPath1024"><path d="m 592.7771,504 h 14 v 14 h -14 z" id="path1022"/></clipPath><clipPath clipPathUnits="userSpaceOnUse" id="clipPath1034"><path d="m 592.7771,545.0211 h 14 v 14 h -14 z" id="path1032"/></clipPath><clipPath clipPathUnits="userSpaceOnUse" id="clipPath1044"><path d="m 697.7771,525 h 14 v 14 h -14 z" id="path1042"/></clipPath><clipPath clipPathUnits="userSpaceOnUse" id="clipPath1054"><path d="m 697.7771,440.7454 h 14 v 14 h -14 z" id="path1052"/></clipPath><clipPath clipPathUnits="userSpaceOnUse" id="clipPath1064"><path d="m 697.7771,314.3333 h 14 v 14 h -14 z" id="path1062"/></clipPath><clipPath clipPathUnits="userSpaceOnUse" id="clipPath1074"><path d="m 697.7771,229 h 14 v 14 h -14 z" id="path1072"/></clipPath><clipPath clipPathUnits="userSpaceOnUse" id="clipPath1084"><path d="m 794.1104,273 h 14 v 14 h -14 z" id="path1082"/></clipPath><clipPath clipPathUnits="userSpaceOnUse" id="clipPath1094"><path d="m 794.1104,482.6667 h 14 v 14 h -14 z" id="path1092"/></clipPath><clipPath clipPathUnits="userSpaceOnUse" id="clipPath1104"><path d="m 900.1104,377 h 14 v 14 h -14 z" id="path1102"/></clipPath></defs><g id="g10" transform="matrix(1.3333333,0,0,-1.3333333,0,1024)"><g id="g12"/><g id="g14"><g id="g16" clip-path="url(#clipPath20)"><g id="g22" transform="translate(32.00732,325.6987)"><text transform="scale(1,-1)" style="font-variant:normal;font-weight:500;font-size:150px;font-family:Hind;-inkscape-font-specification:Hind-Bold;writing-mode:lr-tb;fill:#017100;fill-opacity:1;fill-rule:nonzero;stroke:none" id="text26"><tspan x="0 126.345 189.39 300.13501 384.92999 493.875 540.12 612.46503 702.81 787.60498 872.40002" y="0" id="tspan24">GLUED TREES</tspan></text>
</g></g></g><g id="g28"><g id="g30" clip-path="url(#clipPath34)"><g id="g36" clip-path="url(#clipPath40)"><g id="g42" transform="matrix(0.7071068,0.7071068,0.7071068,-0.7071068,187.6339,382.2147)"><path d="M 0,0 H 153.4554" style="fill:none;stroke:#61d836;stroke-width:6;stroke-linecap:butt;stroke-linejoin:miter;stroke-miterlimit:4;stroke-dasharray:none;stroke-opacity:1" id="path44"/></g></g></g></g><g id="g46"><g id="g48" clip-path="url(#clipPath52)"><g id="g54" clip-path="url(#clipPath58)"><g id="g60" transform="matrix(0.7071068,-0.7071068,-0.7071068,-0.7071068,187.6339,386.5032)"><path d="M 0,0 H 153.4554" style="fill:none;stroke:#61d836;stroke-width:6;stroke-linecap:butt;stroke-linejoin:miter;stroke-miterlimit:4;stroke-dasharray:none;stroke-opacity:1" id="path62"/></g></g></g></g><g id="g64"><g id="g66" clip-path="url(#clipPath70)"><g id="g72" clip-path="url(#clipPath76)"><g id="g78" transform="matrix(0.9144528,0.4046927,0.4046927,-0.9144528,293.809,488.8783)"><path d="M 0,0 H 110.2932" style="fill:none;stroke:#61d836;stroke-width:6;stroke-linecap:butt;stroke-linejoin:miter;stroke-miterlimit:4;stroke-dasharray:none;stroke-opacity:1" id="path80"/></g></g></g></g><g id="g82"><g id="g84" clip-path="url(#clipPath88)"><g id="g90" clip-path="url(#clipPath94)"><g id="g96" transform="matrix(0.9144528,-0.4046925,-0.4046925,-0.9144528,293.809,491.1085)"><path d="M 0,0 H 110.2932" style="fill:none;stroke:#61d836;stroke-width:6;stroke-linecap:butt;stroke-linejoin:miter;stroke-miterlimit:4;stroke-dasharray:none;stroke-opacity:1" id="path98"/></g></g></g></g><g id="g100"><g id="g102" clip-path="url(#clipPath106)"><g id="g108" clip-path="url(#clipPath112)"><g id="g114" transform="matrix(0.9144528,0.4046927,0.4046927,-0.9144528,293.809,278.3226)"><path d="M 0,0 H 110.2932" style="fill:none;stroke:#61d836;stroke-width:6;stroke-linecap:butt;stroke-linejoin:miter;stroke-miterlimit:4;stroke-dasharray:none;stroke-opacity:1" id="path116"/></g></g></g></g><g id="g118"><g id="g120" clip-path="url(#clipPath124)"><g id="g126" clip-path="url(#clipPath130)"><g id="g132" transform="matrix(0.9144528,-0.4046925,-0.4046925,-0.9144528,293.809,280.5528)"><path d="M 0,0 H 110.2932" style="fill:none;stroke:#61d836;stroke-width:6;stroke-linecap:butt;stroke-linejoin:miter;stroke-miterlimit:4;stroke-dasharray:none;stroke-opacity:1" id="path134"/></g></g></g></g><g id="g136"><g id="g138" clip-path="url(#clipPath142)"><g id="g144" clip-path="url(#clipPath148)"><g id="g150" transform="matrix(0.9801549,0.1982331,0.1982331,-0.9801549,390.3407,532.2669)"><path d="M 0,0 H 110.5258" style="fill:none;stroke:#61d836;stroke-width:6;stroke-linecap:butt;stroke-linejoin:miter;stroke-miterlimit:4;stroke-dasharray:none;stroke-opacity:1" id="path152"/></g></g></g></g><g id="g154"><g id="g156" clip-path="url(#clipPath160)"><g id="g162" clip-path="url(#clipPath166)"><g id="g168" transform="matrix(0.9801549,-0.1982331,-0.1982331,-0.9801549,390.3407,532.8253)"><path d="M 0,0 H 110.5258" style="fill:none;stroke:#61d836;stroke-width:6;stroke-linecap:butt;stroke-linejoin:miter;stroke-miterlimit:4;stroke-dasharray:none;stroke-opacity:1" id="path170"/></g></g></g></g><g id="g172"><g id="g174" clip-path="url(#clipPath178)"><g id="g180" clip-path="url(#clipPath184)"><g id="g186" transform="matrix(0.9801549,0.1982331,0.1982331,-0.9801549,390.3407,447.3462)"><path d="M 0,0 H 110.5258" style="fill:none;stroke:#61d836;stroke-width:6;stroke-linecap:butt;stroke-linejoin:miter;stroke-miterlimit:4;stroke-dasharray:none;stroke-opacity:1" id="path188"/></g></g></g></g><g id="g190"><g id="g192" clip-path="url(#clipPath196)"><g id="g198" clip-path="url(#clipPath202)"><g id="g204" transform="matrix(0.9801549,-0.1982331,-0.1982331,-0.9801549,390.3407,447.9046)"><path d="M 0,0 H 110.5258" style="fill:none;stroke:#61d836;stroke-width:6;stroke-linecap:butt;stroke-linejoin:miter;stroke-miterlimit:4;stroke-dasharray:none;stroke-opacity:1" id="path206"/></g></g></g></g><g id="g208"><g id="g210" clip-path="url(#clipPath214)"><g id="g216" clip-path="url(#clipPath220)"><g id="g222" transform="matrix(0.9801549,0.1982331,0.1982331,-0.9801549,390.6302,321.7491)"><path d="M 0,0 H 110.5258" style="fill:none;stroke:#61d836;stroke-width:6;stroke-linecap:butt;stroke-linejoin:miter;stroke-miterlimit:4;stroke-dasharray:none;stroke-opacity:1" id="path224"/></g></g></g></g><g id="g226"><g id="g228" clip-path="url(#clipPath232)"><g id="g234" clip-path="url(#clipPath238)"><g id="g240" transform="matrix(0.9801549,-0.1982331,-0.1982331,-0.9801549,390.6302,322.3075)"><path d="M 0,0 H 110.5258" style="fill:none;stroke:#61d836;stroke-width:6;stroke-linecap:butt;stroke-linejoin:miter;stroke-miterlimit:4;stroke-dasharray:none;stroke-opacity:1" id="path242"/></g></g></g></g><g id="g244"><g id="g246" clip-path="url(#clipPath250)"><g id="g252" clip-path="url(#clipPath256)"><g id="g258" transform="matrix(0.9801549,0.1982331,0.1982331,-0.9801549,390.3407,236.0565)"><path d="M 0,0 H 110.5258" style="fill:none;stroke:#61d836;stroke-width:6;stroke-linecap:butt;stroke-linejoin:miter;stroke-miterlimit:4;stroke-dasharray:none;stroke-opacity:1" id="path260"/></g></g></g></g><g id="g262"><g id="g264" clip-path="url(#clipPath268)"><g id="g270" clip-path="url(#clipPath274)"><g id="g276" transform="matrix(0.9801549,-0.1982331,-0.1982331,-0.9801549,390.3407,236.6149)"><path d="M 0,0 H 110.5258" style="fill:none;stroke:#61d836;stroke-width:6;stroke-linecap:butt;stroke-linejoin:miter;stroke-miterlimit:4;stroke-dasharray:none;stroke-opacity:1" id="path278"/></g></g></g></g><g id="g280"><g id="g282" clip-path="url(#clipPath286)"><g id="g288" clip-path="url(#clipPath292)"><g id="g294" transform="rotate(135,375.67599,379.50628)"><path d="M 0,0 H 153.4554" style="fill:none;stroke:#61d836;stroke-width:6;stroke-linecap:butt;stroke-linejoin:miter;stroke-miterlimit:4;stroke-dasharray:none;stroke-opacity:1" id="path296"/></g></g></g></g><g id="g298"><g id="g300" clip-path="url(#clipPath304)"><g id="g306" clip-path="url(#clipPath310)"><g id="g312" transform="rotate(-135,534.88268,4.8526678)"><path d="M 0,0 H 153.4554" style="fill:none;stroke:#61d836;stroke-width:6;stroke-linecap:butt;stroke-linejoin:miter;stroke-miterlimit:4;stroke-dasharray:none;stroke-opacity:1" id="path314"/></g></g></g></g><g id="g316"><g id="g318" clip-path="url(#clipPath322)"><g id="g324" clip-path="url(#clipPath328)"><g id="g330" transform="rotate(156.12813,350.07619,329.36387)"><path d="M 0,0 H 110.2932" style="fill:none;stroke:#61d836;stroke-width:6;stroke-linecap:butt;stroke-linejoin:miter;stroke-miterlimit:4;stroke-dasharray:none;stroke-opacity:1" id="path332"/></g></g></g></g><g id="g334"><g id="g336" clip-path="url(#clipPath340)"><g id="g342" clip-path="url(#clipPath346)"><g id="g348" transform="rotate(-156.12814,453.655,160.62957)"><path d="M 0,0 H 110.2932" style="fill:none;stroke:#61d836;stroke-width:6;stroke-linecap:butt;stroke-linejoin:miter;stroke-miterlimit:4;stroke-dasharray:none;stroke-opacity:1" id="path350"/></g></g></g></g><g id="g352"><g id="g354" clip-path="url(#clipPath358)"><g id="g360" clip-path="url(#clipPath364)"><g id="g366" transform="rotate(156.12813,372.33069,224.08602)"><path d="M 0,0 H 110.2932" style="fill:none;stroke:#61d836;stroke-width:6;stroke-linecap:butt;stroke-linejoin:miter;stroke-miterlimit:4;stroke-dasharray:none;stroke-opacity:1" id="path368"/></g></g></g></g><g id="g370"><g id="g372" clip-path="url(#clipPath376)"><g id="g378" clip-path="url(#clipPath382)"><g id="g384" transform="rotate(-156.12814,431.40052,55.351716)"><path d="M 0,0 H 110.2932" style="fill:none;stroke:#61d836;stroke-width:6;stroke-linecap:butt;stroke-linejoin:miter;stroke-miterlimit:4;stroke-dasharray:none;stroke-opacity:1" id="path386"/></g></g></g></g><g id="g388"><g id="g390" clip-path="url(#clipPath394)"><g id="g396" clip-path="url(#clipPath400)"><g id="g402" transform="rotate(168.56635,326.83931,301.52049)"><path d="M 0,0 H 110.5258" style="fill:none;stroke:#61d836;stroke-width:6;stroke-linecap:butt;stroke-linejoin:miter;stroke-miterlimit:4;stroke-dasharray:none;stroke-opacity:1" id="path404"/></g></g></g></g><g id="g406"><g id="g408" clip-path="url(#clipPath412)"><g id="g414" clip-path="url(#clipPath418)"><g id="g420" transform="rotate(-168.56635,380.15244,231.02561)"><path d="M 0,0 H 110.5258" style="fill:none;stroke:#61d836;stroke-width:6;stroke-linecap:butt;stroke-linejoin:miter;stroke-miterlimit:4;stroke-dasharray:none;stroke-opacity:1" id="path422"/></g></g></g></g><g id="g424"><g id="g426" clip-path="url(#clipPath430)"><g id="g432" clip-path="url(#clipPath436)"><g id="g438" transform="rotate(168.56635,331.09001,259.06014)"><path d="M 0,0 H 110.5258" style="fill:none;stroke:#61d836;stroke-width:6;stroke-linecap:butt;stroke-linejoin:miter;stroke-miterlimit:4;stroke-dasharray:none;stroke-opacity:1" id="path440"/></g></g></g></g><g id="g442"><g id="g444" clip-path="url(#clipPath448)"><g id="g450" clip-path="url(#clipPath454)"><g id="g456" transform="rotate(-168.56635,375.90174,188.56526)"><path d="M 0,0 H 110.5258" style="fill:none;stroke:#61d836;stroke-width:6;stroke-linecap:butt;stroke-linejoin:miter;stroke-miterlimit:4;stroke-dasharray:none;stroke-opacity:1" id="path458"/></g></g></g></g><g id="g460"><g id="g462" clip-path="url(#clipPath466)"><g id="g468" clip-path="url(#clipPath472)"><g id="g474" transform="rotate(168.56635,337.23202,196.2471)"><path d="M 0,0 H 110.5258" style="fill:none;stroke:#61d836;stroke-width:6;stroke-linecap:butt;stroke-linejoin:miter;stroke-miterlimit:4;stroke-dasharray:none;stroke-opacity:1" id="path476"/></g></g></g></g><g id="g478"><g id="g480" clip-path="url(#clipPath484)"><g id="g486" clip-path="url(#clipPath490)"><g id="g492" transform="rotate(-168.56635,369.47024,125.78121)"><path d="M 0,0 H 110.5258" style="fill:none;stroke:#61d836;stroke-width:6;stroke-linecap:butt;stroke-linejoin:miter;stroke-miterlimit:4;stroke-dasharray:none;stroke-opacity:1" id="path494"/></g></g></g></g><g id="g496"><g id="g498" clip-path="url(#clipPath502)"><g id="g504" clip-path="url(#clipPath508)"><g id="g510" transform="rotate(168.56635,341.66611,153.41529)"><path d="M 0,0 H 110.5258" style="fill:none;stroke:#61d836;stroke-width:6;stroke-linecap:butt;stroke-linejoin:miter;stroke-miterlimit:4;stroke-dasharray:none;stroke-opacity:1" id="path512"/></g></g></g></g><g id="g514"><g id="g516" clip-path="url(#clipPath520)"><g id="g522" clip-path="url(#clipPath526)"><g id="g528" transform="rotate(-168.56635,365.32565,82.920414)"><path d="M 0,0 H 110.5258" style="fill:none;stroke:#61d836;stroke-width:6;stroke-linecap:butt;stroke-linejoin:miter;stroke-miterlimit:4;stroke-dasharray:none;stroke-opacity:1" id="path530"/></g></g></g></g><g id="g532"><g id="g534" clip-path="url(#clipPath538)"><g id="g540" clip-path="url(#clipPath544)"><g id="g546" transform="matrix(0.6308531,0.7759023,0.7759023,-0.6308531,496.2201,215.7195)"><path d="M 0,0 H 165.1571" style="fill:none;stroke:#61d836;stroke-width:6;stroke-linecap:butt;stroke-linejoin:miter;stroke-miterlimit:4;stroke-dasharray:none;stroke-opacity:1" id="path548"/></g></g></g></g><g id="g550"><g id="g552" clip-path="url(#clipPath556)"><g id="g558" clip-path="url(#clipPath562)"><g id="g564" transform="matrix(0.3789557,0.9254148,0.9254148,-0.3789557,496.2201,215.7195)"><path d="M 0,0 H 274.9394" style="fill:none;stroke:#61d836;stroke-width:6;stroke-linecap:butt;stroke-linejoin:miter;stroke-miterlimit:4;stroke-dasharray:none;stroke-opacity:1" id="path566"/></g></g></g></g><g id="g568"><g id="g570" clip-path="url(#clipPath574)"><g id="g576" transform="matrix(1,0,0,-1,496.2201,257.2244)"><path d="M 0,0 H 104.1899" style="fill:none;stroke:#61d836;stroke-width:6;stroke-linecap:butt;stroke-linejoin:miter;stroke-miterlimit:4;stroke-dasharray:none;stroke-opacity:1" id="path578"/></g></g></g><g id="g580"><g id="g582" clip-path="url(#clipPath586)"><g id="g588" clip-path="url(#clipPath592)"><g id="g594" transform="matrix(0.9285061,-0.3713172,-0.3713172,-0.9285061,496.2201,257.2244)"><path d="M 0,0 H 112.2123" style="fill:none;stroke:#61d836;stroke-width:6;stroke-linecap:butt;stroke-linejoin:miter;stroke-miterlimit:4;stroke-dasharray:none;stroke-opacity:1" id="path596"/></g></g></g></g><g id="g598"><g id="g600" clip-path="url(#clipPath604)"><g id="g606" clip-path="url(#clipPath610)"><g id="g612" transform="matrix(0.638508,0.7696152,0.7696152,-0.638508,496.2201,300.6255)"><path d="M 0,0 H 163.177" style="fill:none;stroke:#61d836;stroke-width:6;stroke-linecap:butt;stroke-linejoin:miter;stroke-miterlimit:4;stroke-dasharray:none;stroke-opacity:1" id="path614"/></g></g></g></g><g id="g616"><g id="g618" clip-path="url(#clipPath622)"><g id="g624" clip-path="url(#clipPath628)"><g id="g630" transform="matrix(0.7683031,-0.6400862,-0.6400862,-0.7683031,496.2201,300.6255)"><path d="M 0,0 H 135.6103" style="fill:none;stroke:#61d836;stroke-width:6;stroke-linecap:butt;stroke-linejoin:miter;stroke-miterlimit:4;stroke-dasharray:none;stroke-opacity:1" id="path632"/></g></g></g></g><g id="g634"><g id="g636" clip-path="url(#clipPath640)"><g id="g642" clip-path="url(#clipPath646)"><g id="g648" transform="matrix(0.4339965,0.9009145,0.9009145,-0.4339965,496.2201,341.4707)"><path d="M 0,0 H 235.0493" style="fill:none;stroke:#61d836;stroke-width:6;stroke-linecap:butt;stroke-linejoin:miter;stroke-miterlimit:4;stroke-dasharray:none;stroke-opacity:1" id="path650"/></g></g></g></g><g id="g652"><g id="g654" clip-path="url(#clipPath658)"><g id="g660" clip-path="url(#clipPath664)"><g id="g666" transform="matrix(0.9290649,-0.3699167,-0.3699167,-0.9290649,496.2201,341.4707)"><path d="M 0,0 H 109.7992" style="fill:none;stroke:#61d836;stroke-width:6;stroke-linecap:butt;stroke-linejoin:miter;stroke-miterlimit:4;stroke-dasharray:none;stroke-opacity:1" id="path668"/></g></g></g></g><g id="g670"><g id="g672" clip-path="url(#clipPath676)"><g id="g678" clip-path="url(#clipPath682)"><g id="g684" transform="matrix(0.6280276,-0.778191,-0.778191,-0.6280276,496.2201,427.9683)"><path d="M 0,0 H 165.9001" style="fill:none;stroke:#61d836;stroke-width:6;stroke-linecap:butt;stroke-linejoin:miter;stroke-miterlimit:4;stroke-dasharray:none;stroke-opacity:1" id="path686"/></g></g></g></g><g id="g688"><g id="g690" clip-path="url(#clipPath694)"><g id="g696" clip-path="url(#clipPath700)"><g id="g702" transform="matrix(0.6184023,-0.7858617,-0.7858617,-0.6184023,496.2201,470.5679)"><path d="M 0,0 H 164.9584" style="fill:none;stroke:#61d836;stroke-width:6;stroke-linecap:butt;stroke-linejoin:miter;stroke-miterlimit:4;stroke-dasharray:none;stroke-opacity:1" id="path704"/></g></g></g></g><g id="g706"><g id="g708" clip-path="url(#clipPath712)"><g id="g714" clip-path="url(#clipPath718)"><g id="g720" transform="matrix(0.929059,0.3699315,0.3699315,-0.929059,495.1305,469.8247)"><path d="M 0,0 H 114.4912" style="fill:none;stroke:#61d836;stroke-width:6;stroke-linecap:butt;stroke-linejoin:miter;stroke-miterlimit:4;stroke-dasharray:none;stroke-opacity:1" id="path722"/></g></g></g></g><g id="g724"><g id="g726" clip-path="url(#clipPath730)"><g id="g732" clip-path="url(#clipPath736)"><g id="g738" transform="matrix(0.7781566,-0.6280703,-0.6280703,-0.7781566,496.2201,511.8719)"><path d="M 0,0 H 133.8932" style="fill:none;stroke:#61d836;stroke-width:6;stroke-linecap:butt;stroke-linejoin:miter;stroke-miterlimit:4;stroke-dasharray:none;stroke-opacity:1" id="path740"/></g></g></g></g><g id="g742"><g id="g744" clip-path="url(#clipPath748)"><g id="g750" clip-path="url(#clipPath754)"><g id="g756" transform="matrix(0.3396281,-0.9405598,-0.9405598,-0.3396281,495.1304,553.039)"><path d="M 0,0 H 313.193" style="fill:none;stroke:#61d836;stroke-width:6;stroke-linecap:butt;stroke-linejoin:miter;stroke-miterlimit:4;stroke-dasharray:none;stroke-opacity:1" id="path758"/></g></g></g></g><g id="g760"><g id="g762" clip-path="url(#clipPath766)"><g id="g768" clip-path="url(#clipPath772)"><g id="g774" transform="matrix(0.7796422,0.6262253,0.6262253,-0.7796422,495.1304,427.1057)"><path d="M 0,0 H 136.4333" style="fill:none;stroke:#61d836;stroke-width:6;stroke-linecap:butt;stroke-linejoin:miter;stroke-miterlimit:4;stroke-dasharray:none;stroke-opacity:1" id="path776"/></g></g></g></g><g id="g778"><g id="g780" clip-path="url(#clipPath784)"><g id="g786" transform="matrix(1,0,0,-1,495.1304,553.039)"><path d="M 0,0 H 104.1899" style="fill:none;stroke:#61d836;stroke-width:6;stroke-linecap:butt;stroke-linejoin:miter;stroke-miterlimit:4;stroke-dasharray:none;stroke-opacity:1" id="path788"/></g></g></g><g id="g790"><g id="g792" clip-path="url(#clipPath796)"><g id="g798" clip-path="url(#clipPath802)"><g id="g804" transform="matrix(0.9268423,-0.3754509,-0.3754509,-0.9268423,496.2201,512.1046)"><path d="M 0,0 H 112.4138" style="fill:none;stroke:#61d836;stroke-width:6;stroke-linecap:butt;stroke-linejoin:miter;stroke-miterlimit:4;stroke-dasharray:none;stroke-opacity:1" id="path806"/></g></g></g></g><g id="g808"><g id="g810" clip-path="url(#clipPath814)"><path d="m 193.5114,388.2426 c 2.3432,-2.3431 2.3432,-6.1421 0,-8.4852 -2.3431,-2.3432 -6.1421,-2.3432 -8.4853,0 -2.3431,2.3431 -2.3431,6.1421 0,8.4852 2.3432,2.3432 6.1422,2.3432 8.4853,0 z" style="fill:#61d836;fill-opacity:1;fill-rule:nonzero;stroke:none" id="path816"/></g></g><g id="g818"><g id="g820" clip-path="url(#clipPath824)"><path d="m 301.1781,493.9093 c 2.3431,-2.3431 2.3431,-6.1421 0,-8.4853 -2.3432,-2.3431 -6.1422,-2.3431 -8.4853,0 -2.3431,2.3432 -2.3431,6.1422 0,8.4853 2.3431,2.3431 6.1421,2.3431 8.4853,0 z" style="fill:#61d836;fill-opacity:1;fill-rule:nonzero;stroke:none" id="path826"/></g></g><g id="g828"><g id="g830" clip-path="url(#clipPath834)"><path d="m 301.1781,284.2426 c 2.3431,-2.3431 2.3431,-6.1421 0,-8.4852 -2.3432,-2.3432 -6.1422,-2.3432 -8.4853,0 -2.3431,2.3431 -2.3431,6.1421 0,8.4852 2.3431,2.3432 6.1421,2.3432 8.4853,0 z" style="fill:#61d836;fill-opacity:1;fill-rule:nonzero;stroke:none" id="path836"/></g></g><g id="g838"><g id="g840" clip-path="url(#clipPath844)"><path d="m 397.1781,240.2426 c 2.3431,-2.3431 2.3431,-6.1421 0,-8.4852 -2.3432,-2.3432 -6.1422,-2.3432 -8.4853,0 -2.3431,2.3431 -2.3431,6.1421 0,8.4852 2.3431,2.3432 6.1421,2.3432 8.4853,0 z" style="fill:#61d836;fill-opacity:1;fill-rule:nonzero;stroke:none" id="path846"/></g></g><g id="g848"><g id="g850" clip-path="url(#clipPath854)"><path d="m 397.1781,325.576 c 2.3431,-2.3432 2.3431,-6.1422 0,-8.4853 -2.3432,-2.3431 -6.1422,-2.3431 -8.4853,0 -2.3431,2.3431 -2.3431,6.1421 0,8.4853 2.3431,2.3431 6.1421,2.3431 8.4853,0 z" style="fill:#61d836;fill-opacity:1;fill-rule:nonzero;stroke:none" id="path856"/></g></g><g id="g858"><g id="g860" clip-path="url(#clipPath864)"><path d="m 397.1781,451.9881 c 2.3431,-2.3432 2.3431,-6.1422 0,-8.4853 -2.3432,-2.3432 -6.1422,-2.3432 -8.4853,0 -2.3431,2.3431 -2.3431,6.1421 0,8.4853 2.3431,2.3431 6.1421,2.3431 8.4853,0 z" style="fill:#61d836;fill-opacity:1;fill-rule:nonzero;stroke:none" id="path866"/></g></g><g id="g868"><g id="g870" clip-path="url(#clipPath874)"><path d="m 397.1781,536.2426 c 2.3431,-2.3431 2.3431,-6.1421 0,-8.4852 -2.3432,-2.3432 -6.1422,-2.3432 -8.4853,0 -2.3431,2.3431 -2.3431,6.1421 0,8.4852 2.3431,2.3432 6.1421,2.3432 8.4853,0 z" style="fill:#61d836;fill-opacity:1;fill-rule:nonzero;stroke:none" id="path876"/></g></g><g id="g878"><g id="g880" clip-path="url(#clipPath884)"><path d="m 500.0197,556.7826 c 2.3432,-2.3431 2.3432,-6.1421 0,-8.4852 -2.3431,-2.3432 -6.1421,-2.3432 -8.4853,0 -2.3431,2.3431 -2.3431,6.1421 0,8.4852 2.3432,2.3432 6.1422,2.3432 8.4853,0 z" style="fill:#61d836;fill-opacity:1;fill-rule:nonzero;stroke:none" id="path886"/></g></g><g id="g888"><g id="g890" clip-path="url(#clipPath894)"><path d="m 500.0197,515.8354 c 2.3432,-2.3431 2.3432,-6.1421 0,-8.4853 -2.3431,-2.3431 -6.1421,-2.3431 -8.4853,0 -2.3431,2.3432 -2.3431,6.1422 0,8.4853 2.3432,2.3432 6.1422,2.3432 8.4853,0 z" style="fill:#61d836;fill-opacity:1;fill-rule:nonzero;stroke:none" id="path896"/></g></g><g id="g898"><g id="g900" clip-path="url(#clipPath904)"><path d="m 500.0197,473.2426 c 2.3432,-2.3431 2.3432,-6.1421 0,-8.4852 -2.3431,-2.3432 -6.1421,-2.3432 -8.4853,0 -2.3431,2.3431 -2.3431,6.1421 0,8.4852 2.3432,2.3432 6.1422,2.3432 8.4853,0 z" style="fill:#61d836;fill-opacity:1;fill-rule:nonzero;stroke:none" id="path906"/></g></g><g id="g908"><g id="g910" clip-path="url(#clipPath914)"><path d="m 500.0197,430.6498 c 2.3432,-2.3431 2.3432,-6.1421 0,-8.4852 -2.3431,-2.3432 -6.1421,-2.3432 -8.4853,0 -2.3431,2.3431 -2.3431,6.1421 0,8.4852 2.3432,2.3432 6.1422,2.3432 8.4853,0 z" style="fill:#61d836;fill-opacity:1;fill-rule:nonzero;stroke:none" id="path916"/></g></g><g id="g918"><g id="g920" clip-path="url(#clipPath924)"><path d="m 500.0197,345.3165 c 2.3432,-2.3431 2.3432,-6.1421 0,-8.4853 -2.3431,-2.3431 -6.1421,-2.3431 -8.4853,0 -2.3431,2.3432 -2.3431,6.1422 0,8.4853 2.3432,2.3432 6.1422,2.3432 8.4853,0 z" style="fill:#61d836;fill-opacity:1;fill-rule:nonzero;stroke:none" id="path926"/></g></g><g id="g928"><g id="g930" clip-path="url(#clipPath934)"><path d="m 500.0197,304.517 c 2.3432,-2.3431 2.3432,-6.1421 0,-8.4853 -2.3431,-2.3431 -6.1421,-2.3431 -8.4853,0 -2.3431,2.3432 -2.3431,6.1422 0,8.4853 2.3432,2.3432 6.1422,2.3432 8.4853,0 z" style="fill:#61d836;fill-opacity:1;fill-rule:nonzero;stroke:none" id="path936"/></g></g><g id="g938"><g id="g940" clip-path="url(#clipPath944)"><path d="m 500.0197,261.2426 c 2.3432,-2.3431 2.3432,-6.1421 0,-8.4852 -2.3431,-2.3432 -6.1421,-2.3432 -8.4853,0 -2.3431,2.3431 -2.3431,6.1421 0,8.4852 2.3432,2.3432 6.1422,2.3432 8.4853,0 z" style="fill:#61d836;fill-opacity:1;fill-rule:nonzero;stroke:none" id="path946"/></g></g><g id="g948"><g id="g950" clip-path="url(#clipPath954)"><path d="m 500.0197,219.7026 c 2.3432,-2.3431 2.3432,-6.1421 0,-8.4853 -2.3431,-2.3431 -6.1421,-2.3431 -8.4853,0 -2.3431,2.3432 -2.3431,6.1422 0,8.4853 2.3432,2.3431 6.1422,2.3431 8.4853,0 z" style="fill:#61d836;fill-opacity:1;fill-rule:nonzero;stroke:none" id="path956"/></g></g><g id="g958"><g id="g960" clip-path="url(#clipPath964)"><path d="m 604.0197,219.7026 c 2.3432,-2.3431 2.3432,-6.1421 0,-8.4853 -2.3431,-2.3431 -6.1421,-2.3431 -8.4853,0 -2.3431,2.3432 -2.3431,6.1422 0,8.4853 2.3432,2.3431 6.1422,2.3431 8.4853,0 z" style="fill:#61d836;fill-opacity:1;fill-rule:nonzero;stroke:none" id="path966"/></g></g><g id="g968"><g id="g970" clip-path="url(#clipPath974)"><path d="m 604.0197,261.2426 c 2.3432,-2.3431 2.3432,-6.1421 0,-8.4852 -2.3431,-2.3432 -6.1421,-2.3432 -8.4853,0 -2.3431,2.3431 -2.3431,6.1421 0,8.4852 2.3432,2.3432 6.1422,2.3432 8.4853,0 z" style="fill:#61d836;fill-opacity:1;fill-rule:nonzero;stroke:none" id="path976"/></g></g><g id="g978"><g id="g980" clip-path="url(#clipPath984)"><path d="m 604.0197,304.517 c 2.3432,-2.3431 2.3432,-6.1421 0,-8.4853 -2.3431,-2.3431 -6.1421,-2.3431 -8.4853,0 -2.3431,2.3432 -2.3431,6.1422 0,8.4853 2.3432,2.3432 6.1422,2.3432 8.4853,0 z" style="fill:#61d836;fill-opacity:1;fill-rule:nonzero;stroke:none" id="path986"/></g></g><g id="g988"><g id="g990" clip-path="url(#clipPath994)"><path d="m 604.0197,345.3165 c 2.3432,-2.3431 2.3432,-6.1421 0,-8.4853 -2.3431,-2.3431 -6.1421,-2.3431 -8.4853,0 -2.3431,2.3432 -2.3431,6.1422 0,8.4853 2.3432,2.3432 6.1422,2.3432 8.4853,0 z" style="fill:#61d836;fill-opacity:1;fill-rule:nonzero;stroke:none" id="path996"/></g></g><g id="g998"><g id="g1000" clip-path="url(#clipPath1004)"><path d="m 604.0197,430.6498 c 2.3432,-2.3431 2.3432,-6.1421 0,-8.4852 -2.3431,-2.3432 -6.1421,-2.3432 -8.4853,0 -2.3431,2.3431 -2.3431,6.1421 0,8.4852 2.3432,2.3432 6.1422,2.3432 8.4853,0 z" style="fill:#61d836;fill-opacity:1;fill-rule:nonzero;stroke:none" id="path1006"/></g></g><g id="g1008"><g id="g1010" clip-path="url(#clipPath1014)"><path d="m 604.0197,473.2426 c 2.3432,-2.3431 2.3432,-6.1421 0,-8.4852 -2.3431,-2.3432 -6.1421,-2.3432 -8.4853,0 -2.3431,2.3431 -2.3431,6.1421 0,8.4852 2.3432,2.3432 6.1422,2.3432 8.4853,0 z" style="fill:#61d836;fill-opacity:1;fill-rule:nonzero;stroke:none" id="path1016"/></g></g><g id="g1018"><g id="g1020" clip-path="url(#clipPath1024)"><path d="m 604.0197,515.2426 c 2.3432,-2.3431 2.3432,-6.1421 0,-8.4852 -2.3431,-2.3432 -6.1421,-2.3432 -8.4853,0 -2.3431,2.3431 -2.3431,6.1421 0,8.4852 2.3432,2.3432 6.1422,2.3432 8.4853,0 z" style="fill:#61d836;fill-opacity:1;fill-rule:nonzero;stroke:none" id="path1026"/></g></g><g id="g1028"><g id="g1030" clip-path="url(#clipPath1034)"><path d="m 604.0197,556.2637 c 2.3432,-2.3431 2.3432,-6.1421 0,-8.4853 -2.3431,-2.3431 -6.1421,-2.3431 -8.4853,0 -2.3431,2.3432 -2.3431,6.1422 0,8.4853 2.3432,2.3432 6.1422,2.3432 8.4853,0 z" style="fill:#61d836;fill-opacity:1;fill-rule:nonzero;stroke:none" id="path1036"/></g></g><g id="g1038"><g id="g1040" clip-path="url(#clipPath1044)"><path d="m 709.0197,536.2426 c 2.3432,-2.3431 2.3432,-6.1421 0,-8.4852 -2.3431,-2.3432 -6.1421,-2.3432 -8.4853,0 -2.3431,2.3431 -2.3431,6.1421 0,8.4852 2.3432,2.3432 6.1422,2.3432 8.4853,0 z" style="fill:#61d836;fill-opacity:1;fill-rule:nonzero;stroke:none" id="path1046"/></g></g><g id="g1048"><g id="g1050" clip-path="url(#clipPath1054)"><path d="m 709.0197,451.9881 c 2.3432,-2.3432 2.3432,-6.1422 0,-8.4853 -2.3431,-2.3432 -6.1421,-2.3432 -8.4853,0 -2.3431,2.3431 -2.3431,6.1421 0,8.4853 2.3432,2.3431 6.1422,2.3431 8.4853,0 z" style="fill:#61d836;fill-opacity:1;fill-rule:nonzero;stroke:none" id="path1056"/></g></g><g id="g1058"><g id="g1060" clip-path="url(#clipPath1064)"><path d="m 709.0197,325.576 c 2.3432,-2.3432 2.3432,-6.1422 0,-8.4853 -2.3431,-2.3431 -6.1421,-2.3431 -8.4853,0 -2.3431,2.3431 -2.3431,6.1421 0,8.4853 2.3432,2.3431 6.1422,2.3431 8.4853,0 z" style="fill:#61d836;fill-opacity:1;fill-rule:nonzero;stroke:none" id="path1066"/></g></g><g id="g1068"><g id="g1070" clip-path="url(#clipPath1074)"><path d="m 709.0197,240.2426 c 2.3432,-2.3431 2.3432,-6.1421 0,-8.4852 -2.3431,-2.3432 -6.1421,-2.3432 -8.4853,0 -2.3431,2.3431 -2.3431,6.1421 0,8.4852 2.3432,2.3432 6.1422,2.3432 8.4853,0 z" style="fill:#61d836;fill-opacity:1;fill-rule:nonzero;stroke:none" id="path1076"/></g></g><g id="g1078"><g id="g1080" clip-path="url(#clipPath1084)"><path d="m 805.353,284.2426 c 2.3432,-2.3431 2.3432,-6.1421 0,-8.4852 -2.3431,-2.3432 -6.1421,-2.3432 -8.4852,0 -2.3432,2.3431 -2.3432,6.1421 0,8.4852 2.3431,2.3432 6.1421,2.3432 8.4852,0 z" style="fill:#61d836;fill-opacity:1;fill-rule:nonzero;stroke:none" id="path1086"/></g></g><g id="g1088"><g id="g1090" clip-path="url(#clipPath1094)"><path d="m 805.353,493.9093 c 2.3432,-2.3431 2.3432,-6.1421 0,-8.4853 -2.3431,-2.3431 -6.1421,-2.3431 -8.4852,0 -2.3432,2.3432 -2.3432,6.1422 0,8.4853 2.3431,2.3431 6.1421,2.3431 8.4852,0 z" style="fill:#61d836;fill-opacity:1;fill-rule:nonzero;stroke:none" id="path1096"/></g></g><g id="g1098"><g id="g1100" clip-path="url(#clipPath1104)"><path d="m 911.353,388.2426 c 2.3432,-2.3431 2.3432,-6.1421 0,-8.4852 -2.3431,-2.3432 -6.1421,-2.3432 -8.4852,0 -2.3432,2.3431 -2.3432,6.1421 0,8.4852 2.3431,2.3432 6.1421,2.3432 8.4852,0 z" style="fill:#61d836;fill-opacity:1;fill-rule:nonzero;stroke:none" id="path1106"/></g></g></g></svg>