<svg version="1.1" id="svg2" xml:space="preserve" viewBox="47.080458620689654 270.336 1271.1723827586206 483.328" xmlns="http://www.w3.org/2000/svg" style="max-height: 500px" width="1271.1723827586206" height="483.328"><metadata id="metadata8">image/svg+xml</metadata><defs id="defs6"><clipPath clipPathUnits="userSpaceOnUse" id="clipPath20"><path d="M 0,0 H 1024 V 768 H 0 Z" id="path18"/></clipPath></defs><g id="g10" transform="matrix(1.3333333,0,0,-1.3333333,0,1024)"><g id="g12"/><g id="g14"><g id="g16" clip-path="url(#clipPath20)"><g id="g22" transform="translate(32.00732,325.6987)"><text transform="scale(1,-1)" style="font-variant:normal;font-weight:500;font-size:150px;font-family:Hind;-inkscape-font-specification:Hind-Bold;writing-mode:lr-tb;fill:#88fa4e;fill-opacity:1;fill-rule:nonzero;stroke:none" id="text26"><tspan x="0 126.345 189.39 300.13501 384.92999 493.875 540.12 612.46503 702.81 787.60498 872.40002" y="0" id="tspan24">GLUED TREES</tspan></text>
</g><g id="g28" transform="matrix(0.7071068,0.7071068,0.7071068,-0.7071068,187.6339,382.2147)"><path d="M 0,0 H 153.4554" style="fill:none;stroke:#017100;stroke-width:6;stroke-linecap:butt;stroke-linejoin:miter;stroke-miterlimit:4;stroke-dasharray:none;stroke-opacity:1" id="path30"/></g><g id="g32" transform="matrix(0.7071068,-0.7071068,-0.7071068,-0.7071068,187.6339,386.5032)"><path d="M 0,0 H 153.4554" style="fill:none;stroke:#017100;stroke-width:6;stroke-linecap:butt;stroke-linejoin:miter;stroke-miterlimit:4;stroke-dasharray:none;stroke-opacity:1" id="path34"/></g><g id="g36" transform="matrix(0.9144528,0.4046927,0.4046927,-0.9144528,293.809,488.8783)"><path d="M 0,0 H 110.2932" style="fill:none;stroke:#017100;stroke-width:6;stroke-linecap:butt;stroke-linejoin:miter;stroke-miterlimit:4;stroke-dasharray:none;stroke-opacity:1" id="path38"/></g><g id="g40" transform="matrix(0.9144528,-0.4046925,-0.4046925,-0.9144528,293.809,491.1085)"><path d="M 0,0 H 110.2932" style="fill:none;stroke:#017100;stroke-width:6;stroke-linecap:butt;stroke-linejoin:miter;stroke-miterlimit:4;stroke-dasharray:none;stroke-opacity:1" id="path42"/></g><g id="g44" transform="matrix(0.9144528,0.4046927,0.4046927,-0.9144528,293.809,278.3226)"><path d="M 0,0 H 110.2932" style="fill:none;stroke:#017100;stroke-width:6;stroke-linecap:butt;stroke-linejoin:miter;stroke-miterlimit:4;stroke-dasharray:none;stroke-opacity:1" id="path46"/></g><g id="g48" transform="matrix(0.9144528,-0.4046925,-0.4046925,-0.9144528,293.809,280.5528)"><path d="M 0,0 H 110.2932" style="fill:none;stroke:#017100;stroke-width:6;stroke-linecap:butt;stroke-linejoin:miter;stroke-miterlimit:4;stroke-dasharray:none;stroke-opacity:1" id="path50"/></g><g id="g52" transform="matrix(0.9801549,0.1982331,0.1982331,-0.9801549,390.3407,532.2669)"><path d="M 0,0 H 110.5258" style="fill:none;stroke:#017100;stroke-width:6;stroke-linecap:butt;stroke-linejoin:miter;stroke-miterlimit:4;stroke-dasharray:none;stroke-opacity:1" id="path54"/></g><g id="g56" transform="matrix(0.9801549,-0.1982331,-0.1982331,-0.9801549,390.3407,532.8253)"><path d="M 0,0 H 110.5258" style="fill:none;stroke:#017100;stroke-width:6;stroke-linecap:butt;stroke-linejoin:miter;stroke-miterlimit:4;stroke-dasharray:none;stroke-opacity:1" id="path58"/></g><g id="g60" transform="matrix(0.9801549,0.1982331,0.1982331,-0.9801549,390.3407,447.3462)"><path d="M 0,0 H 110.5258" style="fill:none;stroke:#017100;stroke-width:6;stroke-linecap:butt;stroke-linejoin:miter;stroke-miterlimit:4;stroke-dasharray:none;stroke-opacity:1" id="path62"/></g><g id="g64" transform="matrix(0.9801549,-0.1982331,-0.1982331,-0.9801549,390.3407,447.9046)"><path d="M 0,0 H 110.5258" style="fill:none;stroke:#017100;stroke-width:6;stroke-linecap:butt;stroke-linejoin:miter;stroke-miterlimit:4;stroke-dasharray:none;stroke-opacity:1" id="path66"/></g><g id="g68" transform="matrix(0.9801549,0.1982331,0.1982331,-0.9801549,390.6302,321.7491)"><path d="M 0,0 H 110.5258" style="fill:none;stroke:#017100;stroke-width:6;stroke-linecap:butt;stroke-linejoin:miter;stroke-miterlimit:4;stroke-dasharray:none;stroke-opacity:1" id="path70"/></g><g id="g72" transform="matrix(0.9801549,-0.1982331,-0.1982331,-0.9801549,390.6302,322.3075)"><path d="M 0,0 H 110.5258" style="fill:none;stroke:#017100;stroke-width:6;stroke-linecap:butt;stroke-linejoin:miter;stroke-miterlimit:4;stroke-dasharray:none;stroke-opacity:1" id="path74"/></g><g id="g76" transform="matrix(0.9801549,0.1982331,0.1982331,-0.9801549,390.3407,236.0565)"><path d="M 0,0 H 110.5258" style="fill:none;stroke:#017100;stroke-width:6;stroke-linecap:butt;stroke-linejoin:miter;stroke-miterlimit:4;stroke-dasharray:none;stroke-opacity:1" id="path78"/></g><g id="g80" transform="matrix(0.9801549,-0.1982331,-0.1982331,-0.9801549,390.3407,236.6149)"><path d="M 0,0 H 110.5258" style="fill:none;stroke:#017100;stroke-width:6;stroke-linecap:butt;stroke-linejoin:miter;stroke-miterlimit:4;stroke-dasharray:none;stroke-opacity:1" id="path82"/></g><g id="g84" transform="matrix(-0.7071068,0.7071068,0.7071068,0.7071068,909.6705,382.2147)"><path d="M 0,0 H 153.4554" style="fill:none;stroke:#017100;stroke-width:6;stroke-linecap:butt;stroke-linejoin:miter;stroke-miterlimit:4;stroke-dasharray:none;stroke-opacity:1" id="path86"/></g><g id="g88" transform="matrix(-0.7071068,-0.7071068,-0.7071068,0.7071068,909.6705,386.5032)"><path d="M 0,0 H 153.4554" style="fill:none;stroke:#017100;stroke-width:6;stroke-linecap:butt;stroke-linejoin:miter;stroke-miterlimit:4;stroke-dasharray:none;stroke-opacity:1" id="path90"/></g><g id="g92" transform="matrix(-0.9144528,0.4046927,0.4046927,0.9144528,803.4955,488.8783)"><path d="M 0,0 H 110.2932" style="fill:none;stroke:#017100;stroke-width:6;stroke-linecap:butt;stroke-linejoin:miter;stroke-miterlimit:4;stroke-dasharray:none;stroke-opacity:1" id="path94"/></g><g id="g96" transform="matrix(-0.9144528,-0.4046925,-0.4046925,0.9144528,803.4955,491.1085)"><path d="M 0,0 H 110.2932" style="fill:none;stroke:#017100;stroke-width:6;stroke-linecap:butt;stroke-linejoin:miter;stroke-miterlimit:4;stroke-dasharray:none;stroke-opacity:1" id="path98"/></g><g id="g100" transform="matrix(-0.9144528,0.4046927,0.4046927,0.9144528,803.4955,278.3226)"><path d="M 0,0 H 110.2932" style="fill:none;stroke:#017100;stroke-width:6;stroke-linecap:butt;stroke-linejoin:miter;stroke-miterlimit:4;stroke-dasharray:none;stroke-opacity:1" id="path102"/></g><g id="g104" transform="matrix(-0.9144528,-0.4046925,-0.4046925,0.9144528,803.4955,280.5528)"><path d="M 0,0 H 110.2932" style="fill:none;stroke:#017100;stroke-width:6;stroke-linecap:butt;stroke-linejoin:miter;stroke-miterlimit:4;stroke-dasharray:none;stroke-opacity:1" id="path106"/></g><g id="g108" transform="matrix(-0.9801549,0.1982331,0.1982331,0.9801549,706.9638,532.2669)"><path d="M 0,0 H 110.5258" style="fill:none;stroke:#017100;stroke-width:6;stroke-linecap:butt;stroke-linejoin:miter;stroke-miterlimit:4;stroke-dasharray:none;stroke-opacity:1" id="path110"/></g><g id="g112" transform="matrix(-0.9801549,-0.1982331,-0.1982331,0.9801549,706.9638,532.8253)"><path d="M 0,0 H 110.5258" style="fill:none;stroke:#017100;stroke-width:6;stroke-linecap:butt;stroke-linejoin:miter;stroke-miterlimit:4;stroke-dasharray:none;stroke-opacity:1" id="path114"/></g><g id="g116" transform="matrix(-0.9801549,0.1982331,0.1982331,0.9801549,706.9638,447.3462)"><path d="M 0,0 H 110.5258" style="fill:none;stroke:#017100;stroke-width:6;stroke-linecap:butt;stroke-linejoin:miter;stroke-miterlimit:4;stroke-dasharray:none;stroke-opacity:1" id="path118"/></g><g id="g120" transform="matrix(-0.9801549,-0.1982331,-0.1982331,0.9801549,706.9638,447.9046)"><path d="M 0,0 H 110.5258" style="fill:none;stroke:#017100;stroke-width:6;stroke-linecap:butt;stroke-linejoin:miter;stroke-miterlimit:4;stroke-dasharray:none;stroke-opacity:1" id="path122"/></g><g id="g124" transform="matrix(-0.9801549,0.1982331,0.1982331,0.9801549,706.6743,321.7491)"><path d="M 0,0 H 110.5258" style="fill:none;stroke:#017100;stroke-width:6;stroke-linecap:butt;stroke-linejoin:miter;stroke-miterlimit:4;stroke-dasharray:none;stroke-opacity:1" id="path126"/></g><g id="g128" transform="matrix(-0.9801549,-0.1982331,-0.1982331,0.9801549,706.6743,322.3075)"><path d="M 0,0 H 110.5258" style="fill:none;stroke:#017100;stroke-width:6;stroke-linecap:butt;stroke-linejoin:miter;stroke-miterlimit:4;stroke-dasharray:none;stroke-opacity:1" id="path130"/></g><g id="g132" transform="matrix(-0.9801549,0.1982331,0.1982331,0.9801549,706.9638,236.0565)"><path d="M 0,0 H 110.5258" style="fill:none;stroke:#017100;stroke-width:6;stroke-linecap:butt;stroke-linejoin:miter;stroke-miterlimit:4;stroke-dasharray:none;stroke-opacity:1" id="path134"/></g><g id="g136" transform="matrix(-0.9801549,-0.1982331,-0.1982331,0.9801549,706.9638,236.6149)"><path d="M 0,0 H 110.5258" style="fill:none;stroke:#017100;stroke-width:6;stroke-linecap:butt;stroke-linejoin:miter;stroke-miterlimit:4;stroke-dasharray:none;stroke-opacity:1" id="path138"/></g><g id="g140" transform="matrix(0.6308531,0.7759023,0.7759023,-0.6308531,496.2201,215.7195)"><path d="M 0,0 H 165.1571" style="fill:none;stroke:#017100;stroke-width:6;stroke-linecap:butt;stroke-linejoin:miter;stroke-miterlimit:4;stroke-dasharray:none;stroke-opacity:1" id="path142"/></g><g id="g144" transform="matrix(0.3789557,0.9254148,0.9254148,-0.3789557,496.2201,215.7195)"><path d="M 0,0 H 274.9394" style="fill:none;stroke:#017100;stroke-width:6;stroke-linecap:butt;stroke-linejoin:miter;stroke-miterlimit:4;stroke-dasharray:none;stroke-opacity:1" id="path146"/></g><g id="g148" transform="matrix(1,0,0,-1,496.2201,257.2244)"><path d="M 0,0 H 104.1899" style="fill:none;stroke:#017100;stroke-width:6;stroke-linecap:butt;stroke-linejoin:miter;stroke-miterlimit:4;stroke-dasharray:none;stroke-opacity:1" id="path150"/></g><g id="g152" transform="matrix(0.9285061,-0.3713172,-0.3713172,-0.9285061,496.2201,257.2244)"><path d="M 0,0 H 112.2123" style="fill:none;stroke:#017100;stroke-width:6;stroke-linecap:butt;stroke-linejoin:miter;stroke-miterlimit:4;stroke-dasharray:none;stroke-opacity:1" id="path154"/></g><g id="g156" transform="matrix(0.638508,0.7696152,0.7696152,-0.638508,496.2201,300.6255)"><path d="M 0,0 H 163.177" style="fill:none;stroke:#017100;stroke-width:6;stroke-linecap:butt;stroke-linejoin:miter;stroke-miterlimit:4;stroke-dasharray:none;stroke-opacity:1" id="path158"/></g><g id="g160" transform="matrix(0.7683031,-0.6400862,-0.6400862,-0.7683031,496.2201,300.6255)"><path d="M 0,0 H 135.6103" style="fill:none;stroke:#017100;stroke-width:6;stroke-linecap:butt;stroke-linejoin:miter;stroke-miterlimit:4;stroke-dasharray:none;stroke-opacity:1" id="path162"/></g><g id="g164" transform="matrix(0.4339965,0.9009145,0.9009145,-0.4339965,496.2201,341.4707)"><path d="M 0,0 H 235.0493" style="fill:none;stroke:#017100;stroke-width:6;stroke-linecap:butt;stroke-linejoin:miter;stroke-miterlimit:4;stroke-dasharray:none;stroke-opacity:1" id="path166"/></g><g id="g168" transform="matrix(0.9290649,-0.3699167,-0.3699167,-0.9290649,496.2201,341.4707)"><path d="M 0,0 H 109.7992" style="fill:none;stroke:#017100;stroke-width:6;stroke-linecap:butt;stroke-linejoin:miter;stroke-miterlimit:4;stroke-dasharray:none;stroke-opacity:1" id="path170"/></g><g id="g172" transform="matrix(0.6280276,-0.778191,-0.778191,-0.6280276,496.2201,427.9683)"><path d="M 0,0 H 165.9001" style="fill:none;stroke:#017100;stroke-width:6;stroke-linecap:butt;stroke-linejoin:miter;stroke-miterlimit:4;stroke-dasharray:none;stroke-opacity:1" id="path174"/></g><g id="g176" transform="matrix(0.6184023,-0.7858617,-0.7858617,-0.6184023,496.2201,470.5679)"><path d="M 0,0 H 164.9584" style="fill:none;stroke:#017100;stroke-width:6;stroke-linecap:butt;stroke-linejoin:miter;stroke-miterlimit:4;stroke-dasharray:none;stroke-opacity:1" id="path178"/></g><g id="g180" transform="matrix(0.929059,0.3699315,0.3699315,-0.929059,495.1305,469.8247)"><path d="M 0,0 H 114.4912" style="fill:none;stroke:#017100;stroke-width:6;stroke-linecap:butt;stroke-linejoin:miter;stroke-miterlimit:4;stroke-dasharray:none;stroke-opacity:1" id="path182"/></g><g id="g184" transform="matrix(0.7781566,-0.6280703,-0.6280703,-0.7781566,496.2201,511.8719)"><path d="M 0,0 H 133.8932" style="fill:none;stroke:#017100;stroke-width:6;stroke-linecap:butt;stroke-linejoin:miter;stroke-miterlimit:4;stroke-dasharray:none;stroke-opacity:1" id="path186"/></g><g id="g188" transform="matrix(0.3396281,-0.9405598,-0.9405598,-0.3396281,495.1304,553.039)"><path d="M 0,0 H 313.193" style="fill:none;stroke:#017100;stroke-width:6;stroke-linecap:butt;stroke-linejoin:miter;stroke-miterlimit:4;stroke-dasharray:none;stroke-opacity:1" id="path190"/></g><g id="g192" transform="matrix(0.7796422,0.6262253,0.6262253,-0.7796422,495.1304,427.1057)"><path d="M 0,0 H 136.4333" style="fill:none;stroke:#017100;stroke-width:6;stroke-linecap:butt;stroke-linejoin:miter;stroke-miterlimit:4;stroke-dasharray:none;stroke-opacity:1" id="path194"/></g><g id="g196" transform="matrix(1,0,0,-1,495.1304,553.039)"><path d="M 0,0 H 104.1899" style="fill:none;stroke:#017100;stroke-width:6;stroke-linecap:butt;stroke-linejoin:miter;stroke-miterlimit:4;stroke-dasharray:none;stroke-opacity:1" id="path198"/></g><g id="g200" transform="matrix(0.9268423,-0.3754509,-0.3754509,-0.9268423,496.2201,512.1046)"><path d="M 0,0 H 112.4138" style="fill:none;stroke:#017100;stroke-width:6;stroke-linecap:butt;stroke-linejoin:miter;stroke-miterlimit:4;stroke-dasharray:none;stroke-opacity:1" id="path202"/></g><path d="m 193.5114,388.2426 c 2.3432,-2.3431 2.3432,-6.1421 0,-8.4852 -2.3431,-2.3432 -6.1421,-2.3432 -8.4853,0 -2.3431,2.3431 -2.3431,6.1421 0,8.4852 2.3432,2.3432 6.1422,2.3432 8.4853,0 z" style="fill:#017100;fill-opacity:1;fill-rule:nonzero;stroke:none" id="path204"/><path d="m 301.1781,493.9093 c 2.3431,-2.3431 2.3431,-6.1421 0,-8.4853 -2.3432,-2.3431 -6.1422,-2.3431 -8.4853,0 -2.3431,2.3432 -2.3431,6.1422 0,8.4853 2.3431,2.3431 6.1421,2.3431 8.4853,0 z" style="fill:#017100;fill-opacity:1;fill-rule:nonzero;stroke:none" id="path206"/><path d="m 301.1781,284.2426 c 2.3431,-2.3431 2.3431,-6.1421 0,-8.4852 -2.3432,-2.3432 -6.1422,-2.3432 -8.4853,0 -2.3431,2.3431 -2.3431,6.1421 0,8.4852 2.3431,2.3432 6.1421,2.3432 8.4853,0 z" style="fill:#017100;fill-opacity:1;fill-rule:nonzero;stroke:none" id="path208"/><path d="m 397.1781,240.2426 c 2.3431,-2.3431 2.3431,-6.1421 0,-8.4852 -2.3432,-2.3432 -6.1422,-2.3432 -8.4853,0 -2.3431,2.3431 -2.3431,6.1421 0,8.4852 2.3431,2.3432 6.1421,2.3432 8.4853,0 z" style="fill:#017100;fill-opacity:1;fill-rule:nonzero;stroke:none" id="path210"/><path d="m 397.1781,325.576 c 2.3431,-2.3432 2.3431,-6.1422 0,-8.4853 -2.3432,-2.3431 -6.1422,-2.3431 -8.4853,0 -2.3431,2.3431 -2.3431,6.1421 0,8.4853 2.3431,2.3431 6.1421,2.3431 8.4853,0 z" style="fill:#017100;fill-opacity:1;fill-rule:nonzero;stroke:none" id="path212"/><path d="m 397.1781,451.9881 c 2.3431,-2.3432 2.3431,-6.1422 0,-8.4853 -2.3432,-2.3432 -6.1422,-2.3432 -8.4853,0 -2.3431,2.3431 -2.3431,6.1421 0,8.4853 2.3431,2.3431 6.1421,2.3431 8.4853,0 z" style="fill:#017100;fill-opacity:1;fill-rule:nonzero;stroke:none" id="path214"/><path d="m 397.1781,536.2426 c 2.3431,-2.3431 2.3431,-6.1421 0,-8.4852 -2.3432,-2.3432 -6.1422,-2.3432 -8.4853,0 -2.3431,2.3431 -2.3431,6.1421 0,8.4852 2.3431,2.3432 6.1421,2.3432 8.4853,0 z" style="fill:#017100;fill-opacity:1;fill-rule:nonzero;stroke:none" id="path216"/><path d="m 500.0197,556.7826 c 2.3432,-2.3431 2.3432,-6.1421 0,-8.4852 -2.3431,-2.3432 -6.1421,-2.3432 -8.4853,0 -2.3431,2.3431 -2.3431,6.1421 0,8.4852 2.3432,2.3432 6.1422,2.3432 8.4853,0 z" style="fill:#017100;fill-opacity:1;fill-rule:nonzero;stroke:none" id="path218"/><path d="m 500.0197,515.8354 c 2.3432,-2.3431 2.3432,-6.1421 0,-8.4853 -2.3431,-2.3431 -6.1421,-2.3431 -8.4853,0 -2.3431,2.3432 -2.3431,6.1422 0,8.4853 2.3432,2.3432 6.1422,2.3432 8.4853,0 z" style="fill:#017100;fill-opacity:1;fill-rule:nonzero;stroke:none" id="path220"/><path d="m 500.0197,473.2426 c 2.3432,-2.3431 2.3432,-6.1421 0,-8.4852 -2.3431,-2.3432 -6.1421,-2.3432 -8.4853,0 -2.3431,2.3431 -2.3431,6.1421 0,8.4852 2.3432,2.3432 6.1422,2.3432 8.4853,0 z" style="fill:#017100;fill-opacity:1;fill-rule:nonzero;stroke:none" id="path222"/><path d="m 500.0197,430.6498 c 2.3432,-2.3431 2.3432,-6.1421 0,-8.4852 -2.3431,-2.3432 -6.1421,-2.3432 -8.4853,0 -2.3431,2.3431 -2.3431,6.1421 0,8.4852 2.3432,2.3432 6.1422,2.3432 8.4853,0 z" style="fill:#017100;fill-opacity:1;fill-rule:nonzero;stroke:none" id="path224"/><path d="m 500.0197,345.3165 c 2.3432,-2.3431 2.3432,-6.1421 0,-8.4853 -2.3431,-2.3431 -6.1421,-2.3431 -8.4853,0 -2.3431,2.3432 -2.3431,6.1422 0,8.4853 2.3432,2.3432 6.1422,2.3432 8.4853,0 z" style="fill:#017100;fill-opacity:1;fill-rule:nonzero;stroke:none" id="path226"/><path d="m 500.0197,304.517 c 2.3432,-2.3431 2.3432,-6.1421 0,-8.4853 -2.3431,-2.3431 -6.1421,-2.3431 -8.4853,0 -2.3431,2.3432 -2.3431,6.1422 0,8.4853 2.3432,2.3432 6.1422,2.3432 8.4853,0 z" style="fill:#017100;fill-opacity:1;fill-rule:nonzero;stroke:none" id="path228"/><path d="m 500.0197,261.2426 c 2.3432,-2.3431 2.3432,-6.1421 0,-8.4852 -2.3431,-2.3432 -6.1421,-2.3432 -8.4853,0 -2.3431,2.3431 -2.3431,6.1421 0,8.4852 2.3432,2.3432 6.1422,2.3432 8.4853,0 z" style="fill:#017100;fill-opacity:1;fill-rule:nonzero;stroke:none" id="path230"/><path d="m 500.0197,219.7026 c 2.3432,-2.3431 2.3432,-6.1421 0,-8.4853 -2.3431,-2.3431 -6.1421,-2.3431 -8.4853,0 -2.3431,2.3432 -2.3431,6.1422 0,8.4853 2.3432,2.3431 6.1422,2.3431 8.4853,0 z" style="fill:#017100;fill-opacity:1;fill-rule:nonzero;stroke:none" id="path232"/><path d="m 604.0197,219.7026 c 2.3432,-2.3431 2.3432,-6.1421 0,-8.4853 -2.3431,-2.3431 -6.1421,-2.3431 -8.4853,0 -2.3431,2.3432 -2.3431,6.1422 0,8.4853 2.3432,2.3431 6.1422,2.3431 8.4853,0 z" style="fill:#017100;fill-opacity:1;fill-rule:nonzero;stroke:none" id="path234"/><path d="m 604.0197,261.2426 c 2.3432,-2.3431 2.3432,-6.1421 0,-8.4852 -2.3431,-2.3432 -6.1421,-2.3432 -8.4853,0 -2.3431,2.3431 -2.3431,6.1421 0,8.4852 2.3432,2.3432 6.1422,2.3432 8.4853,0 z" style="fill:#017100;fill-opacity:1;fill-rule:nonzero;stroke:none" id="path236"/><path d="m 604.0197,304.517 c 2.3432,-2.3431 2.3432,-6.1421 0,-8.4853 -2.3431,-2.3431 -6.1421,-2.3431 -8.4853,0 -2.3431,2.3432 -2.3431,6.1422 0,8.4853 2.3432,2.3432 6.1422,2.3432 8.4853,0 z" style="fill:#017100;fill-opacity:1;fill-rule:nonzero;stroke:none" id="path238"/><path d="m 604.0197,345.3165 c 2.3432,-2.3431 2.3432,-6.1421 0,-8.4853 -2.3431,-2.3431 -6.1421,-2.3431 -8.4853,0 -2.3431,2.3432 -2.3431,6.1422 0,8.4853 2.3432,2.3432 6.1422,2.3432 8.4853,0 z" style="fill:#017100;fill-opacity:1;fill-rule:nonzero;stroke:none" id="path240"/><path d="m 604.0197,430.6498 c 2.3432,-2.3431 2.3432,-6.1421 0,-8.4852 -2.3431,-2.3432 -6.1421,-2.3432 -8.4853,0 -2.3431,2.3431 -2.3431,6.1421 0,8.4852 2.3432,2.3432 6.1422,2.3432 8.4853,0 z" style="fill:#017100;fill-opacity:1;fill-rule:nonzero;stroke:none" id="path242"/><path d="m 604.0197,473.2426 c 2.3432,-2.3431 2.3432,-6.1421 0,-8.4852 -2.3431,-2.3432 -6.1421,-2.3432 -8.4853,0 -2.3431,2.3431 -2.3431,6.1421 0,8.4852 2.3432,2.3432 6.1422,2.3432 8.4853,0 z" style="fill:#017100;fill-opacity:1;fill-rule:nonzero;stroke:none" id="path244"/><path d="m 604.0197,515.2426 c 2.3432,-2.3431 2.3432,-6.1421 0,-8.4852 -2.3431,-2.3432 -6.1421,-2.3432 -8.4853,0 -2.3431,2.3431 -2.3431,6.1421 0,8.4852 2.3432,2.3432 6.1422,2.3432 8.4853,0 z" style="fill:#017100;fill-opacity:1;fill-rule:nonzero;stroke:none" id="path246"/><path d="m 604.0197,556.2637 c 2.3432,-2.3431 2.3432,-6.1421 0,-8.4853 -2.3431,-2.3431 -6.1421,-2.3431 -8.4853,0 -2.3431,2.3432 -2.3431,6.1422 0,8.4853 2.3432,2.3432 6.1422,2.3432 8.4853,0 z" style="fill:#017100;fill-opacity:1;fill-rule:nonzero;stroke:none" id="path248"/><path d="m 709.0197,536.2426 c 2.3432,-2.3431 2.3432,-6.1421 0,-8.4852 -2.3431,-2.3432 -6.1421,-2.3432 -8.4853,0 -2.3431,2.3431 -2.3431,6.1421 0,8.4852 2.3432,2.3432 6.1422,2.3432 8.4853,0 z" style="fill:#017100;fill-opacity:1;fill-rule:nonzero;stroke:none" id="path250"/><path d="m 709.0197,451.9881 c 2.3432,-2.3432 2.3432,-6.1422 0,-8.4853 -2.3431,-2.3432 -6.1421,-2.3432 -8.4853,0 -2.3431,2.3431 -2.3431,6.1421 0,8.4853 2.3432,2.3431 6.1422,2.3431 8.4853,0 z" style="fill:#017100;fill-opacity:1;fill-rule:nonzero;stroke:none" id="path252"/><path d="m 709.0197,325.576 c 2.3432,-2.3432 2.3432,-6.1422 0,-8.4853 -2.3431,-2.3431 -6.1421,-2.3431 -8.4853,0 -2.3431,2.3431 -2.3431,6.1421 0,8.4853 2.3432,2.3431 6.1422,2.3431 8.4853,0 z" style="fill:#017100;fill-opacity:1;fill-rule:nonzero;stroke:none" id="path254"/><path d="m 709.0197,240.2426 c 2.3432,-2.3431 2.3432,-6.1421 0,-8.4852 -2.3431,-2.3432 -6.1421,-2.3432 -8.4853,0 -2.3431,2.3431 -2.3431,6.1421 0,8.4852 2.3432,2.3432 6.1422,2.3432 8.4853,0 z" style="fill:#017100;fill-opacity:1;fill-rule:nonzero;stroke:none" id="path256"/><path d="m 805.353,284.2426 c 2.3432,-2.3431 2.3432,-6.1421 0,-8.4852 -2.3431,-2.3432 -6.1421,-2.3432 -8.4852,0 -2.3432,2.3431 -2.3432,6.1421 0,8.4852 2.3431,2.3432 6.1421,2.3432 8.4852,0 z" style="fill:#017100;fill-opacity:1;fill-rule:nonzero;stroke:none" id="path258"/><path d="m 805.353,493.9093 c 2.3432,-2.3431 2.3432,-6.1421 0,-8.4853 -2.3431,-2.3431 -6.1421,-2.3431 -8.4852,0 -2.3432,2.3432 -2.3432,6.1422 0,8.4853 2.3431,2.3431 6.1421,2.3431 8.4852,0 z" style="fill:#017100;fill-opacity:1;fill-rule:nonzero;stroke:none" id="path260"/><path d="m 911.353,388.2426 c 2.3432,-2.3431 2.3432,-6.1421 0,-8.4852 -2.3431,-2.3432 -6.1421,-2.3432 -8.4852,0 -2.3432,2.3431 -2.3432,6.1421 0,8.4852 2.3431,2.3432 6.1421,2.3432 8.4852,0 z" style="fill:#017100;fill-opacity:1;fill-rule:nonzero;stroke:none" id="path262"/></g></g></g></svg>